<svg xmlns="http://www.w3.org/2000/svg" width="1600" height="900" viewBox="0 0 1600 900"><defs><pattern id="grid" width="40" height="40" patternUnits="userSpaceOnUse"><path d="M40 0H0V40" fill="none" stroke="#e7e9e4" stroke-width="0.6"/></pattern></defs><rect width="100%" height="100%" fill="#f7f8f4"/><rect width="100%" height="100%" fill="url(#grid)"/><path d="M64 64H1536" stroke="#cfd6cf"/><text x="64" y="110" fill="#315963" font-family="Segoe UI, Arial, sans-serif" font-size="17" letter-spacing="2">05 / AGENTLAB</text><text x="64" y="207" fill="#25312f" font-family="Segoe UI, Arial, sans-serif" font-size="64" font-weight="600">Plan. Build. Review.</text><text x="64" y="266" fill="#25312f" font-family="Segoe UI, Arial, sans-serif" font-size="29" >One Horizon orchestration · local Minisforum execution</text><rect x="64" y="340" width="1472" height="300" rx="16" fill="#edf1ea" stroke="#cbd4cb"/><text x="94" y="385" fill="#65716b" font-family="Segoe UI, Arial, sans-serif" font-size="17" letter-spacing="2">WORKFLOW ROLES</text><rect x="94" y="415" width="390" height="155" rx="12" fill="white" stroke="#cbd4cb"/><rect x="94" y="415" width="5" height="155" rx="2" fill="#315963"/><text x="124" y="474" fill="#25312f" font-family="Segoe UI, Arial, sans-serif" font-size="30" font-weight="600">Planner</text><text x="124" y="520" fill="#65716b" font-family="Segoe UI, Arial, sans-serif" font-size="20" >Claude · implementation plan</text><path d="M492 490H571m-10 -8l10 8-10 8" stroke="#62786c" stroke-width="2" fill="none"/><rect x="591" y="415" width="390" height="155" rx="12" fill="white" stroke="#cbd4cb"/><rect x="591" y="415" width="5" height="155" rx="2" fill="#315963"/><text x="621" y="474" fill="#25312f" font-family="Segoe UI, Arial, sans-serif" font-size="30" font-weight="600">Builder</text><text x="621" y="520" fill="#65716b" font-family="Segoe UI, Arial, sans-serif" font-size="20" >Qwen / OpenCode</text><path d="M989 490H1065m-10 -8l10 8-10 8" stroke="#62786c" stroke-width="2" fill="none"/><rect x="1085" y="415" width="420" height="155" rx="12" fill="white" stroke="#cbd4cb"/><rect x="1085" y="415" width="5" height="155" rx="2" fill="#315963"/><text x="1115" y="474" fill="#25312f" font-family="Segoe UI, Arial, sans-serif" font-size="30" font-weight="600">Reviewer</text><text x="1115" y="520" fill="#65716b" font-family="Segoe UI, Arial, sans-serif" font-size="20" >QA and safety review</text><text x="64" y="716" fill="#25312f" font-family="Segoe UI, Arial, sans-serif" font-size="30" font-weight="600">Local inference</text><text x="64" y="762" fill="#25312f" font-family="Segoe UI, Arial, sans-serif" font-size="27" >AgentLab gateway / Qwen shim → Ollama → local Qwen models</text><text x="64" y="840" fill="#65716b" font-family="Segoe UI, Arial, sans-serif" font-size="17" >Source-verified roles · runtime evidence: infrastructure audit, 03 Oct 2026</text></svg>